<?xml version="1.0" encoding="UTF-8"?>
<svg width="24px" height="26px" viewBox="0 0 24 26" version="1.1" xmlns="http://www.w3.org/2000/svg" xmlns:xlink="http://www.w3.org/1999/xlink">
    <!-- Generator: Sketch 57.1 (83088) - https://sketch.com -->
    <title>path-2</title>
    <desc>Created with Sketch.</desc>
    <g id="Symbols" stroke="none" stroke-width="1" fill="none" fill-rule="evenodd">
        <g id="button_accessibility" transform="translate(-13.000000, -12.000000)" fill="#B22534" fill-rule="nonzero">
            <g id="Group-2">
                <path d="M27.5,15 C27.5,16.3750005 26.3750005,17.5 25,17.5 C23.6249995,17.5 22.5,16.3750005 22.5,15 C22.5,13.6250001 23.6249995,12.5 25,12.5 C26.3750005,12.5 27.5,13.6250001 27.5,15 L25,18.75 C28.5374999,18.75 32.3624992,18.3749998 35.625,17.5 L36.25,20 C33.9249992,20.625 31.25,21.0374999 28.75,21.25 L28.75,37.5 L26.25,37.5 L26.25,30 L23.75,30 L23.75,37.5 L21.25,37.5 L21.25,21.25 C18.75,21.0374999 16.0750002,20.625 13.75,20 L14.375,17.5 C17.6374996,18.3749998 21.4625001,18.75 25,18.75 L27.5,15 Z" id="path-2"></path>
            </g>
        </g>
    </g>
</svg>