<?xml version="1.0" encoding="UTF-8"?>
<svg width="315px" height="58px" viewBox="0 0 315 58" version="1.1" xmlns="http://www.w3.org/2000/svg" xmlns:xlink="http://www.w3.org/1999/xlink">
    <!-- Generator: Sketch 57.1 (83088) - https://sketch.com -->
    <title>Group 21</title>
    <desc>Created with Sketch.</desc>
    <g id="Symbols" stroke="none" stroke-width="1" fill="none" fill-rule="evenodd">
        <g id="header" transform="translate(-24.000000, -20.000000)">
            <g id="Group-21" transform="translate(24.000000, 20.000000)">
                <path d="M28.701,56.07075 C13.6155,56.07075 1.3425,43.791 1.3425,28.70475 C1.3425,13.617 13.6155,1.341 28.701,1.341 C43.78725,1.341 56.06325,13.617 56.06325,28.70475 C56.06325,43.791 43.78725,56.07075 28.701,56.07075 Z M28.701,-1.42108547e-14 C12.876,-1.42108547e-14 -3.20454774e-12,12.87825 -3.20454774e-12,28.70475 C-3.20454774e-12,44.532 12.876,57.408 28.701,57.408 C44.529,57.408 57.405,44.532 57.405,28.70475 C57.405,12.87825 44.529,-1.42108547e-14 28.701,-1.42108547e-14 L28.701,-1.42108547e-14 Z" id="Fill-62" fill="#C52039"></path>
                <path d="M28.701,48.92925 C17.55,48.92925 8.47725,39.8565 8.47725,28.70475 C8.47725,17.55075 17.55,8.4765 28.701,8.4765 C39.85575,8.4765 48.92925,17.55075 48.92925,28.70475 C48.92925,39.8565 39.85575,48.92925 28.701,48.92925 Z M28.701,7.1475 C16.8165,7.1475 7.14525,16.8165 7.14525,28.70475 C7.14525,40.59 16.8165,50.265 28.701,50.265 C40.5855,50.265 50.25975,40.59 50.25975,28.70475 C50.25975,16.8165 40.5855,7.1475 28.701,7.1475 L28.701,7.1475 Z" id="Fill-63" fill="#C52039"></path>
                <path d="M25.3605,21.44475 L25.3605,21.51075 C25.35,21.74775 24.945,22.047 24.77025,22.16625 C24.12975,22.5975 23.17875,23.1375 22.68,23.41425 C22.20525,23.12925 21.318,22.5945 20.67525,22.16625 C20.2065,21.8505 20.03175,21.59625 20.02275,21.4695 C20.019,21.38925 20.019,20.80425 20.019,20.025 L25.36575,20.025 C25.36575,20.79675 25.36275,21.372 25.3605,21.44475 Z M20.019,17.51625 L25.3605,17.51625 C25.36275,17.8935 25.36275,18.2925 25.36275,18.68325 L20.019,18.68325 C20.019,18.2925 20.019,17.8935 20.019,17.51625 Z M26.6985,16.179 L18.67875,16.179 L18.67875,16.848 C18.675,18.92475 18.675,21.42975 18.6855,21.561 C18.72825,22.1865 19.13775,22.74825 19.93125,23.2785 C20.87175,23.9085 22.2735,24.73125 22.329,24.768 L22.6575,24.9555 L22.99125,24.7785 C23.05275,24.74325 24.56625,23.91675 25.51425,23.28075 C26.292,22.76175 26.67675,22.19625 26.6985,21.55875 C26.7045,21.45525 26.70825,19.87125 26.703,16.848 L26.6985,16.179 L26.6985,16.179 Z" id="Fill-64" fill="#C52039"></path>
                <path d="M35.0235,17.75775 L32.41125,19.6515 C32.41125,18.969 32.41275,18.19725 32.41275,17.48775 L37.755,17.48775 L37.755,19.581 L35.0235,17.75775 Z M37.75275,21.4125 L37.74975,21.48 C37.746,21.72 37.338,22.01775 37.1625,22.13325 C36.52425,22.56225 35.5725,23.1045 35.0745,23.38125 C34.6005,23.1015 33.71025,22.56225 33.06975,22.13325 C32.60475,21.82125 32.427,21.5685 32.41725,21.43725 C32.4165,21.417 32.41425,21.36675 32.41425,21.294 L32.41725,21.2985 L35.05575,19.39275 L37.75425,21.19275 C37.75425,21.303 37.75275,21.38925 37.75275,21.4125 Z M39.093,16.146 L31.08075,16.146 C31.08075,16.146 31.0725,21.42375 31.08,21.53025 C31.12275,22.15575 31.5315,22.716 32.32575,23.24775 C33.26175,23.8785 34.6635,24.7005 34.72125,24.7335 L35.0505,24.927 L35.382,24.74325 C35.44575,24.71025 36.95775,23.886 37.9095,23.24775 C38.688,22.7265 39.07425,22.15875 39.0915,21.52575 C39.093,21.486 39.093,16.146 39.093,16.146 L39.093,16.146 Z" id="Fill-65" fill="#C52039"></path>
                <path d="M30.7875,31.8015 C30.9915,31.8225 31.182,31.842 31.3575,31.8645 C31.71375,31.899 32.02275,31.93425 32.29275,31.941 L32.75475,31.95 C33.2385,31.96875 33.79125,31.98075 33.97875,31.98825 L33.99525,31.2825 C33.80325,31.27725 33.25575,31.2645 32.772,31.2495 L32.3085,31.23675 C32.05575,31.22925 31.7655,31.19625 31.43175,31.164 C31.254,31.14075 31.059,31.1265 30.8595,31.1055 C30.7185,31.08525 30.58425,31.08525 30.46575,31.0935 L30.495,31.794 C30.58275,31.79025 30.684,31.79325 30.7875,31.8015" id="Fill-66" fill="#C52039"></path>
                <path d="M31.45275,33.3165 C31.26675,33.2985 31.06725,33.27375 30.8595,33.25425 C30.7215,33.24225 30.59025,33.24225 30.471,33.24225 L30.48975,33.94575 C30.579,33.94575 30.68175,33.94575 30.7905,33.9585 C31.0005,33.978 31.1955,33.996 31.37925,34.0185 C31.728,34.056 32.02725,34.08675 32.29575,34.092 L33.98325,34.1325 L33.993,33.42825 L32.3085,33.38625 C32.06325,33.38325 31.779,33.35025 31.45275,33.3165" id="Fill-67" fill="#C52039"></path>
                <path d="M32.3085,35.5365 C32.06325,35.5305 31.7835,35.50125 31.458,35.46975 C31.2705,35.44575 31.07025,35.4225 30.85725,35.40825 C30.7185,35.39475 30.58425,35.3895 30.46725,35.39475 L30.49125,36.09825 C30.58275,36.096 30.684,36.09825 30.7905,36.10875 C31.00275,36.1275 31.2015,36.1485 31.38375,36.1725 C31.728,36.2055 32.03025,36.23925 32.29275,36.24225 L33.1695,36.26475 C33.52125,36.276 33.846,36.285 33.98475,36.285 L33.993,35.5815 C33.8565,35.57925 33.53625,35.5725 33.1905,35.55975 L32.3085,35.5365" id="Fill-68" fill="#C52039"></path>
                <path d="M32.3085,37.69125 C32.06325,37.68075 31.7805,37.6545 31.458,37.61775 C31.2705,37.6005 31.06725,37.57725 30.8595,37.55625 C30.7215,37.545 30.58875,37.5375 30.46725,37.545 L30.49125,38.24925 C30.579,38.24925 30.68175,38.24925 30.7905,38.26125 C31.0005,38.2785 31.1985,38.298 31.38375,38.31825 C31.728,38.355 32.028,38.3895 32.29275,38.394 L32.3565,38.394 C32.89575,38.409 33.73575,38.43225 33.98325,38.43975 L33.993,37.7325 C33.75075,37.7265 32.91075,37.7055 32.37525,37.69125 L32.3085,37.69125" id="Fill-69" fill="#C52039"></path>
                <path d="M25.062,31.926 C25.34325,31.9185 25.65525,31.88775 26.01375,31.845 C26.18625,31.83 26.36925,31.80825 26.571,31.79025 C26.6655,31.779 26.7675,31.77675 26.85225,31.77675 L26.85975,31.07325 C26.7525,31.07325 26.62425,31.07325 26.5005,31.08525 C26.301,31.1055 26.11425,31.1265 25.93725,31.14525 C25.59975,31.18125 25.305,31.21725 24.987,31.2255 C24.45225,31.23675 23.60775,31.26 23.3595,31.2645 L23.37375,31.96875 C23.6235,31.9635 24.468,31.941 25.062,31.926" id="Fill-70" fill="#C52039"></path>
                <path d="M25.92075,33.2985 C25.58625,33.33225 25.29975,33.3675 25.0455,33.37275 L23.3595,33.4155 L23.37375,34.116 L25.062,34.07625 C25.33275,34.071 25.6395,34.03875 25.99875,33.996 C26.175,33.978 26.361,33.9585 26.5605,33.9405 C26.65875,33.93225 26.754,33.92625 26.84175,33.93225 L26.871,33.2235 C26.76,33.2235 26.634,33.2235 26.5005,33.23625 C26.292,33.25425 26.1015,33.27675 25.92075,33.2985" id="Fill-71" fill="#C52039"></path>
                <path d="M25.9155,35.451 C25.58475,35.4855 25.29975,35.51625 25.044,35.51625 C24.51525,35.5365 23.6175,35.55975 23.3655,35.55975 L23.37075,36.26475 C23.628,36.26475 24.53175,36.23925 25.0605,36.225 C25.3365,36.222 25.6395,36.1845 25.98825,36.1485 C26.1675,36.132 26.3595,36.10875 26.57625,36.0885 C26.6715,36.08025 26.7675,36.08025 26.85225,36.08325 L26.85975,35.3775 C26.7465,35.37375 26.61675,35.3775 26.50275,35.3895 C26.292,35.40825 26.097,35.42775 25.9155,35.451" id="Fill-72" fill="#C52039"></path>
                <path d="M25.935,37.6005 C25.5945,37.63575 25.305,37.668 25.0455,37.67625 L24.9465,37.67775 C24.4095,37.69125 23.6025,37.71 23.36325,37.716 L23.37075,38.4195 C23.61525,38.4195 24.42675,38.394 24.96975,38.38275 L25.062,38.37675 C25.3365,38.37075 25.64775,38.3385 26.0115,38.298 C26.18475,38.2785 26.36775,38.26125 26.57325,38.24025 C26.6655,38.2275 26.76225,38.2275 26.8485,38.2275 L26.85825,37.524 C26.74125,37.524 26.61675,37.524 26.5005,37.5375 C26.301,37.55625 26.10975,37.57725 25.935,37.6005" id="Fill-73" fill="#C52039"></path>
                <path d="M16.335,25.42875 L16.335,15.51675 L41.05125,15.51675 L41.05275,25.42875 L16.335,25.42875 Z M29.151,39.86925 L29.151,29.949 C29.20125,29.898 29.328,29.808 29.58075,29.7465 C29.589,29.7465 30.19725,29.62425 30.87075,29.7015 C31.28625,29.736 31.66725,29.77875 32.02275,29.817 C32.6685,29.88525 33.222,29.94375 33.729,29.9535 C34.221,29.96775 34.63275,29.96775 34.9815,29.96775 C35.06925,29.96775 35.1465,29.973 35.2395,29.96775 L35.2395,39.92775 C34.96275,39.92925 34.608,39.92925 34.227,39.92475 C33.294,39.8985 32.661,39.8415 32.0445,39.786 C31.42575,39.7305 30.8325,39.67725 30.04125,39.67725 C30.0285,39.67725 30.01425,39.67725 30.00075,39.67725 C29.64525,39.67725 29.37,39.75975 29.151,39.86925 Z M41.05275,32.91225 C41.05275,40.605 31.81275,45.81075 29.151,47.1495 L29.151,41.604 C29.30925,41.50575 29.4255,41.38275 29.50875,41.286 C29.66775,41.103 29.74125,41.019 30.0045,41.019 C30.74925,41.00625 31.296,41.06475 31.926,41.12025 C32.52975,41.17575 33.21825,41.23725 34.19625,41.26275 C35.16525,41.286 35.91675,41.24325 35.94975,41.24025 L36.57975,41.2065 L36.57975,39.37275 L37.75275,39.37275 L37.75275,37.7685 L36.57975,37.7685 L36.57975,36.0585 L37.83075,36.0585 L37.83075,34.4565 L36.57975,34.4565 L36.5775,32.34975 L37.75275,32.34975 L37.75275,30.75075 L36.5775,30.75075 L36.5775,28.647 L35.92425,28.62975 C35.721,28.62675 35.48925,28.62975 35.2185,28.62675 C34.8345,28.62975 34.35825,28.62975 33.7605,28.61625 C33.3105,28.60725 32.78025,28.54575 32.1645,28.4835 C31.80225,28.443 31.4145,28.4025 31.0065,28.36425 C30.1245,28.26375 29.34075,28.42725 29.2935,28.43775 C29.2365,28.4505 29.20125,28.47 29.151,28.488 L29.151,26.75625 L41.05275,26.75625 L41.05275,32.91225 Z M28.1445,28.46025 C28.1205,28.4535 28.104,28.443 28.077,28.43775 C28.04625,28.42725 27.26175,28.26825 26.394,28.36425 C25.9785,28.4025 25.59,28.443 25.22925,28.4805 C24.61125,28.54575 24.07725,28.60725 23.6235,28.61625 C23.02875,28.62975 22.55325,28.62975 22.16775,28.62675 C21.89775,28.62675 21.666,28.62675 21.46425,28.62975 L20.8095,28.647 L20.8095,30.43275 L19.491,30.43275 L19.491,32.03925 L20.808,32.03925 L20.808,34.14225 L19.491,34.14225 L19.491,35.7435 L20.808,35.7435 L20.808,37.4565 L19.491,37.4565 L19.491,39.05475 L20.808,39.05475 L20.8065,41.2065 L21.44175,41.24025 C21.47175,41.24325 22.22325,41.286 23.1915,41.26275 C24.16725,41.23725 24.8565,41.17575 25.46175,41.12025 C26.079,41.06475 26.61675,41.019 27.345,41.019 C27.57975,41.01675 27.6645,41.07375 27.81975,41.26275 C27.89175,41.3535 27.99825,41.478 28.1445,41.5815 L28.1445,47.094 C25.34775,45.68775 16.335,40.548 16.335,32.58675 L16.335,26.75625 L28.1445,26.75625 L28.1445,28.46025 Z M28.1445,39.837 C27.94275,39.74325 27.69675,39.67725 27.39075,39.67725 C27.375,39.67725 27.35925,39.67725 27.345,39.67725 C26.556,39.67725 25.96575,39.7305 25.34325,39.786 C24.726,39.8415 24.09225,39.8985 23.16,39.92475 C22.776,39.92925 22.42725,39.92925 22.1475,39.92775 L22.1475,29.96775 C22.15275,29.96775 22.16175,29.96775 22.16475,29.96775 C22.5645,29.96775 23.0475,29.96775 23.6535,29.9535 C24.16725,29.94375 24.7245,29.88525 25.36875,29.81175 C25.7235,29.77875 26.10675,29.736 26.529,29.6985 C27.1785,29.62425 27.7875,29.74125 27.7875,29.74125 C27.95025,29.77875 28.06125,29.83125 28.1445,29.88 L28.1445,39.837 Z M14.99325,14.18175 L14.991,32.58675 C14.991,42.83025 27.89325,48.48675 28.43925,48.7185 L28.70925,48.834 L28.97475,48.7185 C29.11125,48.6585 32.3505,47.2245 35.634,44.5905 C40.056,41.0445 42.39225,37.00125 42.39225,32.91225 L42.39,14.1795 L14.99325,14.18175 L14.99325,14.18175 Z" id="Fill-74" fill="#C52039"></path>
                <path d="M6.23925,26.8215 C6.26025,26.53125 6.222,26.23125 6.17175,25.94625 L5.52225,25.93875 C5.6085,26.12325 5.6505,26.48325 5.6325,26.781 C5.5815,27.59325 4.95975,28.0395 4.1775,27.9885 C3.38025,27.94125 2.808,27.40875 2.856,26.62725 C2.871,26.352 2.928,26.0925 3.114,25.81575 L2.46225,25.719 C2.33625,25.99125 2.26575,26.31975 2.24775,26.57175 C2.1675,27.8625 2.85825,28.70475 4.17975,28.788 C5.484,28.869 6.162,28.05225 6.23925,26.8215" id="Fill-75" fill="#C52039"></path>
                <path d="M3.73725,21.9015 C3.945,21.17025 4.70175,21.06375 5.35725,21.24825 C6.02775,21.43725 6.6285,21.909 6.4125,22.6605 C6.1995,23.41425 5.44275,23.49975 4.77375,23.30625 C4.11675,23.12175 3.5295,22.62975 3.73725,21.9015 Z M4.55325,24.078 C5.6925,24.402 6.666,24.0045 6.999,22.827 C7.32675,21.669 6.69975,20.79675 5.577,20.48175 C4.449,20.16375 3.4785,20.5845 3.15075,21.735 C2.82075,22.902 3.4125,23.7525 4.55325,24.078 L4.55325,24.078 Z" id="Fill-76" fill="#C52039"></path>
                <path d="M6.62325,17.61375 L6.50625,17.8365 L5.58675,17.34675 L5.703,17.12475 C5.8845,16.785 6.11625,16.42575 6.53025,16.65075 C6.95625,16.87275 6.801,17.2815 6.62325,17.61375 Z M8.45925,18.8775 L7.04325,18.12375 L7.158,17.907 C7.3095,17.62125 7.452,17.589 7.761,17.62425 L9.042,17.7885 L9.44025,17.037 L7.81875,16.8675 C7.632,16.8525 7.3905,16.8585 7.27275,17.037 L7.266,17.0265 C7.4385,16.57275 7.245,16.12875 6.84375,15.915 C5.89575,15.408 5.46075,16.2855 5.0775,17.01225 L4.689,17.736 L8.1015,19.55325 L8.45925,18.8775 L8.45925,18.8775 Z" id="Fill-77" fill="#C52039"></path>
                <polyline id="Fill-78" fill="#C52039" points="10.74675 15.2265 8.52075 13.38075 8.52675 13.36725 11.6835 14.094 12.27975 13.37475 9.3045 10.9065 8.83875 11.47125 11.06175 13.31475 11.05575 13.3245 7.902 12.5985 7.30125 13.31925 10.27725 15.78825 10.74675 15.2265"></polyline>
                <polyline id="Fill-79" fill="#C52039" points="15.369 10.68975 14.9835 10.215 13.82025 11.16075 13.137 10.32075 14.19375 9.4635 13.8075 8.98875 12.75375 9.849 12.1515 9.111 13.3035 8.1735 12.918 7.6995 11.175 9.12375 13.611 12.11925 15.369 10.68975"></polyline>
                <polyline id="Fill-80" fill="#C52039" points="18.819 8.5995 18.5205 8.06775 17.2305 8.793 15.6345 5.958 14.967 6.32925 16.8615 9.69825 18.819 8.5995"></polyline>
                <polyline id="Fill-81" fill="#C52039" points="22.3215 7.233 22.11225 6.66 20.718 7.16175 19.61175 4.10175 18.89475 4.36275 20.2065 7.99725 22.3215 7.233"></polyline>
                <path d="M26.93325,6.47625 C27.9045,6.393 28.44975,5.919 28.362,4.89 L28.158,2.4255 L27.393,2.48925 L27.57975,4.716 C27.63525,5.36925 27.465,5.82075 26.88525,5.868 C26.301,5.9145 26.055,5.49825 26.00325,4.84725 L25.818,2.619 L25.05675,2.68575 L25.26225,5.145 C25.34325,6.17925 25.95675,6.55425 26.93325,6.47625" id="Fill-82" fill="#C52039"></path>
                <polyline id="Fill-83" fill="#C52039" points="31.37925 3.55425 31.389 3.55425 32.4495 6.61275 33.37425 6.74025 33.89175 2.9085 33.16275 2.8095 32.78025 5.676 32.76975 5.676 31.71375 2.61225 30.7845 2.48925 30.26775 6.31725 30.9915 6.417 31.37925 3.55425"></polyline>
                <polyline id="Fill-84" fill="#C52039" points="36.99225 3.76575 36.2625 3.5385 35.1075 7.2255 35.83575 7.4565 36.99225 3.76575"></polyline>
                <polyline id="Fill-85" fill="#C52039" points="42.13875 6.04875 41.45925 5.70675 39.22575 7.97925 39.21525 7.97025 39.71475 4.82475 38.98125 4.45125 38.40675 8.49675 39.24525 8.916 42.13875 6.04875"></polyline>
                <polyline id="Fill-86" fill="#C52039" points="43.3965 11.74575 43.77075 11.26725 42.5895 10.344 43.25775 9.486 44.331 10.32675 44.70525 9.84675 43.6365 9.0075 44.22075 8.2575 45.39225 9.16875 45.76425 8.69475 43.99425 7.30425 41.6145 10.3515 43.3965 11.74575"></polyline>
                <path d="M47.59725,11.34 L47.7645,11.529 C48.0165,11.81625 48.2685,12.165 47.919,12.4695 C47.5545,12.7875 47.22975,12.5025 46.98,12.2175 L46.81575,12.0285 L47.59725,11.34 Z M45.15,13.4865 L46.359,12.43125 L46.521,12.618 C46.73325,12.858 46.713,13.002 46.5705,13.2765 L45.966,14.4165 L46.5255,15.05625 L47.25975,13.59675 C47.34075,13.43025 47.41875,13.2015 47.29275,13.035 L47.30175,13.0245 C47.67225,13.34775 48.15525,13.3245 48.495,13.0245 C49.30275,12.31875 48.63675,11.5995 48.096,10.98375 L47.5545,10.36125 L44.646,12.9135 L45.15,13.4865 L45.15,13.4865 Z" id="Fill-87" fill="#C52039"></path>
                <path d="M48.31125,16.80975 C48.1575,16.5525 48.0855,16.242 48.07725,15.945 L47.4375,16.23975 C47.55,16.6125 47.59725,16.79925 47.8095,17.15775 C48.20025,17.82075 48.813,18.225 49.54425,17.793 C50.6595,17.13525 49.56525,15.8385 50.14125,15.49875 C50.50575,15.2865 50.778,15.51375 50.9115,15.74025 C51.0465,15.9705 51.12825,16.233 51.15975,16.494 L51.744,16.23 C51.68625,15.942 51.56625,15.65775 51.4005,15.37725 C51.06075,14.79975 50.4495,14.38875 49.7085,14.82975 C48.60375,15.483 49.71825,16.76175 49.083,17.13525 C48.7845,17.31675 48.45825,17.0595 48.31125,16.80975" id="Fill-88" fill="#C52039"></path>
                <polyline id="Fill-89" fill="#C52039" points="49.56525 20.5845 53.14275 19.12725 52.8555 18.4185 49.275 19.87875 49.56525 20.5845"></polyline>
                <polyline id="Fill-90" fill="#C52039" points="50.358 23.02275 50.544 23.76675 53.703 22.986 53.9625 24.05175 54.55425 23.90625 53.85225 21.036 53.2575 21.18225 53.5215 22.24425 50.358 23.02275"></polyline>
                <polyline id="Fill-91" fill="#C52039" points="51.06525 27.3135 51.10875 28.07475 52.6365 27.9885 55.04475 29.2275 54.999 28.4175 53.32725 27.59025 54.90075 26.6025 54.8505 25.70625 52.59375 27.228 51.06525 27.3135"></polyline>
                <polyline id="Fill-92" fill="#C52039" points="5.262 36.50325 5.84625 36.33 5.4855 35.08275 6.40125 34.821 6.78 36.1395 7.36575 35.96475 6.77475 33.90825 3.0585 34.97925 3.2715 35.7255 4.90125 35.25075 5.262 36.50325"></polyline>
                <path d="M7.27575,40.50075 C6.6525,40.80825 5.892,40.8555 5.54475,40.1445 C5.196,39.43575 5.697,38.86875 6.3225,38.55825 C6.9375,38.26125 7.70025,38.2335 8.0355,38.92125 C8.376,39.6105 7.887,40.19925 7.27575,40.50075 Z M8.58525,38.6475 C8.04525,37.55175 7.0335,37.31475 5.97,37.8345 C4.905,38.355 4.449,39.30675 4.998,40.4145 C5.53875,41.51175 6.58275,41.73825 7.632,41.223 C8.6835,40.7085 9.117,39.7335 8.58525,38.6475 L8.58525,38.6475 Z" id="Fill-93" fill="#C52039"></path>
                <path d="M11.70525,43.548 L9.96,44.93925 C9.4455,45.3495 8.97375,45.45375 8.6085,44.98875 C8.2395,44.5275 8.4465,44.094 8.961,43.68375 L10.71075,42.2985 L10.22925,41.69325 L8.29575,43.2255 C7.4835,43.87125 7.5135,44.598 8.1285,45.36975 C8.74425,46.14 9.4455,46.332 10.25475,45.69375 L12.189,44.1555 L11.70525,43.548" id="Fill-94" fill="#C52039"></path>
                <polyline id="Fill-95" fill="#C52039" points="15.2805 46.92825 13.45275 49.167 13.443 49.1595 14.136 45.99225 13.401 45.39225 10.953 48.38475 11.52675 48.8505 13.3545 46.61475 13.36425 46.61925 12.67425 49.794 13.407 50.38725 15.8535 47.397 15.2805 46.92825"></polyline>
                <path d="M18.6645,51.18075 C18.28425,51.93825 17.51025,52.0875 16.935,51.79875 L16.5495,51.6075 L17.73825,49.236 L18.12525,49.42875 C18.70425,49.722 19.03875,50.43525 18.6645,51.18075 Z M18.26625,48.82275 L17.3235,48.348 L15.5865,51.80175 L16.53,52.2765 C17.583,52.80975 18.69375,52.92 19.38225,51.546 C20.07375,50.17425 19.31925,49.3515 18.26625,48.82275 L18.26625,48.82275 Z" id="Fill-96" fill="#C52039"></path>
                <polyline id="Fill-97" fill="#C52039" points="20.79825 54.06975 23.00475 54.663 23.1615 54.06975 21.702 53.67975 21.98025 52.63575 23.3085 52.98825 23.46375 52.3995 22.1355 52.0425 22.37925 51.12375 23.8305 51.51225 23.98875 50.92575 21.7935 50.337 20.79825 54.06975"></polyline>
                <path d="M26.7045,54.549 L26.27325,54.528 L26.4285,51.88125 L26.8545,51.906 C27.4995,51.94425 28.09425,52.458 28.0515,53.298 C27.99825,54.1395 27.3495,54.5835 26.7045,54.549 Z M26.742,51.288 L25.68825,51.225 L25.4715,55.089 L26.5215,55.149 C27.70275,55.212 28.76475,54.87375 28.85325,53.3415 C28.941,51.81225 27.92025,51.3555 26.742,51.288 L26.742,51.288 Z" id="Fill-98" fill="#C52039"></path>
                <path d="M33.14025,53.298 L33.348,51.61875 L33.36075,51.61875 L34.23975,53.06175 L33.14025,53.298 Z M32.78325,50.94375 L32.12475,55.041 L32.9085,54.87375 L33.05175,53.93925 L34.58175,53.6085 L35.08725,54.408 L35.92425,54.2235 L33.6315,50.76675 L32.78325,50.94375 L32.78325,50.94375 Z" id="Fill-99" fill="#C52039"></path>
                <polyline id="Fill-100" fill="#C52039" points="36.78675 53.06325 37.0515 53.79 37.77825 53.5275 37.51275 52.80075 36.78675 53.06325"></polyline>
                <path d="M40.37775,51.69375 L40.00125,51.8955 L38.736,49.56825 L39.114,49.36425 C39.68475,49.05675 40.464,49.17825 40.8645,49.92075 C41.2635,50.6625 40.9455,51.38475 40.37775,51.69375 Z M38.69325,48.9 L37.767,49.401 L39.61125,52.7985 L40.53525,52.2975 C41.5755,51.735 42.30225,50.89275 41.57175,49.5345 C40.842,48.18975 39.73275,48.336 38.69325,48.9 L38.69325,48.9 Z" id="Fill-101" fill="#C52039"></path>
                <polyline id="Fill-102" fill="#C52039" points="42.693 50.11575 43.137 50.75475 43.77075 50.31225 43.329 49.67625 42.693 50.11575"></polyline>
                <polyline id="Fill-103" fill="#C52039" points="44.286 44.82975 44.1195 46.26675 44.75325 46.3545 44.8425 45.5175 46.9395 47.6445 47.48775 47.103 44.7735 44.3445 44.286 44.82975"></polyline>
                <path d="M49.3455,44.094 C49.164,44.343 48.81675,44.43075 48.55575,44.23725 C48.29475,44.046 48.282,43.76625 48.33825,43.4655 C48.61275,43.2705 48.95475,43.11525 49.26225,43.344 C49.51725,43.533 49.53225,43.8435 49.3455,44.094 Z M47.10225,43.12425 C46.85475,42.94125 46.89825,42.62025 47.06325,42.3975 C47.23425,42.1605 47.508,42.13125 47.73675,42.30525 C47.928,42.44475 47.99775,42.76275 47.93025,42.981 C47.69625,43.13325 47.373,43.32225 47.10225,43.12425 Z M48.43875,42.69525 L48.4365,42.69375 C48.549,42.25125 48.35175,41.8365 48.069,41.62425 C47.55,41.24325 46.95975,41.56875 46.554,42.11775 C46.13925,42.67875 46.08975,43.293 46.644,43.7055 C46.971,43.94775 47.37825,43.92825 47.7495,43.725 L47.7555,43.731 C47.66625,44.23725 47.76225,44.6115 48.1095,44.86725 C48.73875,45.336 49.36275,45.0405 49.812,44.43675 C50.26425,43.82625 50.32125,43.167 49.6935,42.70425 C49.3365,42.44475 48.93,42.42825 48.43875,42.69525 L48.43875,42.69525 Z" id="Fill-104" fill="#C52039"></path>
                <path d="M51.75525,40.1625 C51.58425,40.50225 51.22725,40.50075 50.904,40.3365 C50.55375,40.1625 50.3115,39.88275 50.478,39.546 C50.64525,39.21 51.02475,39.2295 51.363,39.399 C51.6705,39.55125 51.915,39.8415 51.75525,40.1625 Z M51.597,38.6505 C50.95875,38.334 50.364,38.48625 50.0385,39.13425 C49.896,39.42825 49.896,39.69225 50.055,39.975 L50.0385,39.98325 C49.53225,39.7065 49.08075,39.2235 49.377,38.62725 C49.49475,38.394 49.64775,38.24025 49.8165,38.091 L49.29975,37.7235 C49.098,37.92075 48.93975,38.14275 48.81675,38.3895 C48.2595,39.50175 49.13925,40.32225 50.07825,40.788 C50.889,41.19225 51.792,41.37975 52.272,40.42125 C52.6575,39.63975 52.34625,39.03 51.597,38.6505 L51.597,38.6505 Z" id="Fill-105" fill="#C52039"></path>
                <path d="M53.0925,34.47075 C52.13325,34.18275 51.68775,34.782 51.534,35.30175 C51.49125,35.44275 51.47775,35.55975 51.4725,35.6505 L50.68575,35.4 L51.10875,33.9705 L50.55525,33.81225 L49.923,35.9355 L51.90375,36.56325 C51.8985,36.32625 51.93,36.09825 52.00125,35.87175 C52.128,35.44575 52.413,35.07525 52.8945,35.21625 C53.36775,35.355 53.4285,35.80875 53.31,36.2025 C53.2155,36.522 53.02875,36.74175 52.9005,36.8985 L53.55975,37.11675 C53.6895,36.88875 53.838,36.56775 53.91975,36.285 C54.20625,35.32875 53.7915,34.674 53.0925,34.47075" id="Fill-106" fill="#C52039"></path>
                <path d="M86.01225,36.2805 C84.6045,37.12875 82.19775,37.59 80.71875,37.59 C74.8935,37.59 70.95525,34.25775 70.95525,28.75275 C70.95525,25.95975 72.0495,23.74725 73.91625,22.2195 C75.73725,20.7135 78.21675,19.8855 80.937,19.8855 C83.193,19.8855 85.37925,20.47275 86.54925,20.88525 C86.304,22.026 86.08425,23.31075 86.08425,24.57075 L85.335,24.57075 L85.335,22.827 C85.335,22.14975 84.363,21.7335 83.2425,21.31875 C82.46925,21.05175 81.423,20.9115 80.5245,20.9115 C75.957,20.9115 73.55475,24.23175 73.55475,28.36275 C73.55475,33.1725 76.7385,36.2805 81.54525,36.2805 C83.2905,36.2805 85.356,35.6505 86.47425,34.8225 L86.6895,35.06475 L86.01225,36.2805" id="Fill-107" fill="#C52039"></path>
                <path d="M89.8215,30.861 C89.8215,33.4155 90.747,36.783 93.858,36.783 C96.06675,36.783 97.01325,34.57875 97.01325,32.3175 C97.01325,29.1855 95.53125,26.5185 93.20325,26.5185 C90.62325,26.5185 89.8215,28.602 89.8215,30.861 Z M87.56625,31.90725 C87.56625,28.2645 89.8485,25.7145 93.756,25.7145 C96.8655,25.7145 99.27225,28.1445 99.27225,31.25325 C99.27225,34.96575 96.62625,37.59 92.90775,37.59 C89.8485,37.68375 87.56625,35.25675 87.56625,31.90725 L87.56625,31.90725 Z" id="Fill-108" fill="#C52039"></path>
                <path d="M101.7225,29.163 C101.7225,28.38825 101.67825,27.8535 101.55,27.6525 C101.40825,27.4635 101.166,27.38925 100.6545,27.38925 L99.75825,27.38925 L99.75825,26.709 C101.18775,26.568 102.6465,26.09925 103.54725,25.7145 L103.7625,25.80825 L103.7625,28.2645 L103.812,28.2645 L105.12375,26.709 C105.70575,26.00625 106.52775,25.7145 107.16225,25.7145 C107.5755,25.7145 108.0885,25.83375 108.28275,25.98075 L108.06225,28.89375 L107.54925,28.89375 C107.283,28.31475 106.77525,27.78075 105.8985,27.78075 C104.8335,27.78075 103.7625,28.89375 103.7625,30.44775 L103.7625,34.6275 C103.7625,35.2845 103.78575,35.7675 103.8855,36.0315 C103.97775,36.24825 104.34225,36.354 104.90325,36.37425 L106.1685,36.44775 L106.1685,37.17375 C104.90325,37.1505 103.93125,37.1025 102.738,37.1025 C101.55,37.1025 100.578,37.1505 99.708,37.17375 L99.708,36.44775 L100.82775,36.37425 C101.23425,36.354 101.502,36.24825 101.601,36.0315 C101.69775,35.7675 101.7225,35.2845 101.7225,34.6275 L101.7225,29.163" id="Fill-109" fill="#C52039"></path>
                <path d="M113.088,34.6275 C113.088,35.2845 113.11125,35.7675 113.208,36.0315 C113.31075,36.24825 113.57175,36.354 113.9865,36.37425 L115.07775,36.44775 L115.07775,37.17375 C114.22875,37.1505 113.259,37.1025 112.068,37.1025 C110.88075,37.1025 109.908,37.1505 109.05525,37.17375 L109.05525,36.44775 L110.15025,36.37425 C110.56275,36.354 110.832,36.24825 110.92425,36.0315 C111.0255,35.7675 111.048,35.2845 111.048,34.6275 L111.048,29.163 C111.048,28.38825 110.99475,27.8535 110.88075,27.6525 C110.73225,27.4635 110.48925,27.38925 109.977,27.38925 L109.0785,27.38925 L109.0785,26.709 C110.51475,26.568 111.9705,26.09925 112.86525,25.7145 L113.088,25.80825 L113.088,27.87525 L113.13525,27.87525 L114.93225,26.32275 C115.4685,25.8615 115.929,25.7145 116.8995,25.7145 C119.74275,25.7145 120.9075,27.29025 120.9075,29.94 L120.9075,34.6275 C120.9075,35.2845 120.9315,35.7675 121.0275,36.0315 C121.12425,36.24825 121.395,36.354 121.80525,36.37425 L122.8005,36.44775 L122.8005,37.17375 C122.193,37.1505 121.4895,37.1025 120.81225,37.1025 C120.1335,37.1025 119.42475,37.1505 118.86825,37.17375 L118.86825,30.282 C118.86825,28.2645 117.7245,27.19575 116.07375,27.19575 C114.59625,27.19575 113.088,28.4835 113.088,29.48025 L113.088,34.6275" id="Fill-110" fill="#C52039"></path>
                <path d="M125.616,30.5475 C127.60575,30.7635 129.6465,30.71775 131.3955,30.61875 C131.3955,28.36275 130.572,26.5185 128.826,26.5185 C126.954,26.5185 125.49525,27.8955 125.616,30.5475 Z M133.557,30.15675 C133.557,30.495 133.557,30.83775 133.50825,31.17975 C132.051,31.4175 130.572,31.51725 129.11625,31.51725 L125.568,31.51725 C125.568,34.3605 126.97725,36.30525 129.963,36.30525 C131.13375,36.30525 132.051,35.72025 132.97425,35.16075 L133.29075,35.4045 L132.80325,36.228 C132.63375,36.522 130.572,37.59 128.922,37.59 C125.256,37.59 123.31275,35.25675 123.31275,31.97925 C123.31275,29.62125 123.94125,28.2195 125.05875,27.339 C125.52,26.97525 126.03225,26.6145 126.56175,26.36775 C127.41525,25.98075 128.1195,25.7145 128.946,25.7145 C131.592,25.7145 133.557,27.414 133.557,30.15675 L133.557,30.15675 Z" id="Fill-111" fill="#C52039"></path>
                <path d="M135.98325,22.04925 C135.98325,21.49275 135.91275,21.05175 135.3795,21.05175 L134.02125,21.05175 L134.02125,20.37225 C135.30525,20.17725 136.593,19.962 137.80875,19.473 L138.024,19.6695 L138.024,34.6275 C138.024,35.2845 138.04725,35.7675 138.147,36.0315 C138.24675,36.24825 138.5085,36.354 138.92325,36.37425 L140.03625,36.44775 L140.03625,37.17375 C139.16625,37.1505 138.192,37.1025 137.0055,37.1025 C135.819,37.1025 134.84475,37.1505 133.97325,37.17375 L133.97325,36.44775 L135.08775,36.37425 C135.501,36.354 135.768,36.24825 135.86775,36.0315 C135.96,35.7675 135.98325,35.2845 135.98325,34.6275 L135.98325,22.04925" id="Fill-112" fill="#C52039"></path>
                <path d="M143.17575,22.04925 C143.17575,21.49275 143.09775,21.05175 142.5675,21.05175 L141.204,21.05175 L141.204,20.37225 C142.49625,20.17725 143.781,19.962 144.99225,19.473 L145.2135,19.6695 L145.2135,34.6275 C145.2135,35.2845 145.23825,35.7675 145.3365,36.0315 C145.43025,36.24825 145.698,36.354 146.11125,36.37425 L147.23025,36.44775 L147.23025,37.17375 C146.35125,37.1505 145.383,37.1025 144.1905,37.1025 C143.00175,37.1025 142.0335,37.1505 141.1575,37.17375 L141.1575,36.44775 L142.272,36.37425 C142.68675,36.354 142.9515,36.24825 143.05275,36.0315 C143.151,35.7675 143.17575,35.2845 143.17575,34.6275 L143.17575,22.04925" id="Fill-113" fill="#C52039"></path>
                <path d="M157.10175,35.8395 C157.782,36.012 158.48775,36.0315 159.1425,36.0315 C161.136,36.0315 164.094,35.9625 164.5095,35.574 C164.75175,35.355 164.8995,34.53 165.018,34.02225 L165.30675,32.8065 L166.092,32.8065 C165.93975,34.14 165.774,35.7675 165.576,36.9795 C164.5095,37.00425 162.591,37.07475 160.79775,37.05075 C158.61075,37.0275 157.0065,36.9795 155.50125,36.9795 C154.67175,36.9795 154.0665,37.0275 153.43875,37.05075 L153.43875,36.49575 L154.18725,36.10875 C154.60275,35.89275 154.79775,35.33775 154.79775,34.67925 L154.79775,23.16525 C154.79775,22.24125 154.74975,21.6105 154.578,21.3435 C154.43025,21.1035 154.1445,21.00675 153.55875,20.98125 L152.3895,20.9115 L152.3895,20.18325 C153.6555,20.232 154.79775,20.25675 155.98575,20.25675 C157.10175,20.25675 158.24775,20.232 159.51,20.18325 L159.51,20.9115 L158.34,20.98125 C157.758,21.00675 157.464,21.1035 157.323,21.3435 C157.1475,21.6105 157.10175,22.24125 157.10175,23.16525 L157.10175,35.8395" id="Fill-114" fill="#C52039"></path>
                <path d="M174.50025,30.7635 C173.28525,30.9375 172.1925,31.1325 170.952,31.614 C170.10375,31.953 169.49625,32.9955 169.49625,33.8985 C169.49625,35.13975 170.41875,35.89275 171.39,35.89275 C172.146,35.89275 172.92075,35.379 173.7195,34.7715 C174.11175,34.48125 174.402,34.11825 174.50025,33.9705 L174.50025,30.7635 Z M174.50025,29.99175 C174.525,28.09875 173.577,26.87775 171.441,26.87775 C170.394,26.87775 170.05425,26.9775 169.73625,27.38925 C169.593,27.5805 169.47225,27.87525 169.326,28.19025 L169.0095,28.94475 L168.381,28.7775 L168.381,27.19575 L169.66725,26.4195 C170.706,25.79175 171.7065,25.596 172.48125,25.596 C175.524,25.596 176.43975,26.92725 176.43975,30.423 L176.43975,34.866 C176.43975,35.25675 176.469,35.6505 176.5185,35.91225 C176.56275,36.153 176.78475,36.25275 177.12375,36.2805 L178.0725,36.327 L178.0725,37.05075 C177.4635,37.0275 176.85225,36.9795 176.24625,36.9795 C175.61775,36.9795 175.008,37.0275 174.378,37.05075 L174.50025,34.995 L171.48675,37.07475 C171.29025,37.2255 170.81325,37.2765 170.36625,37.2765 C168.717,37.2765 167.40975,36.30525 167.40975,34.33425 C167.40975,31.548 169.86375,30.83775 172.09725,30.423 L174.50025,29.99175 L174.50025,29.99175 Z" id="Fill-115" fill="#C52039"></path>
                <path d="M187.0215,25.596 L187.584,25.596 C187.79775,26.298 188.04525,26.92725 188.283,27.5625 L191.0775,34.605 C191.4675,33.6075 191.8785,32.6085 192.24825,31.593 L193.4565,28.19025 C193.85175,27.126 193.5795,26.6145 192.68175,26.568 L191.85225,26.5185 L191.85225,25.839 C192.6555,25.8615 193.43625,25.911 194.23425,25.911 C195.03675,25.911 195.81225,25.8615 196.61475,25.839 L196.61475,26.5185 L195.98775,26.568 C195.42675,26.6145 195.03675,27.26775 194.42925,28.68075 L192.7785,32.46675 C192.12375,33.9705 191.66025,35.59725 191.10375,37.1505 L189.98475,37.1505 L186.68025,28.84725 C186.273,29.748 185.80575,30.669 185.42175,31.569 L183.03975,37.1505 L181.899,37.1505 L179.42175,28.99425 C178.79025,26.952 178.42725,26.6145 177.819,26.568 L177.144,26.5185 L177.144,25.839 C178.11375,25.8615 179.06175,25.911 180.0315,25.911 C181.00125,25.911 181.95,25.8615 182.91975,25.839 L182.91975,26.5185 L181.95,26.568 C181.12425,26.6145 180.85425,26.87775 181.12425,27.75825 L183.16125,34.461 C183.48075,33.80175 183.74475,33.1485 184.03725,32.493 L187.0215,25.596" id="Fill-116" fill="#C52039"></path>
                <path d="M211.50075,24.2115 L211.35525,22.827 C211.28475,22.173 211.18875,21.9285 210.28725,21.37275 C209.60925,20.9565 208.587,20.79075 207.642,20.79075 C205.944,20.79075 204.05025,21.9285 204.05025,24.3315 C204.05025,25.983 205.0185,26.99925 208.04925,27.339 C211.48125,27.7065 213.639,28.55175 213.639,31.3215 C213.639,35.4735 209.92575,37.4685 206.30475,37.4685 C204.60375,37.4685 202.956,36.93525 202.1565,36.546 C202.35075,35.2845 202.35075,33.9705 202.3245,32.82975 L203.10075,32.82975 L203.29575,34.461 C203.41275,35.4735 205.335,36.399 207.252,36.399 C209.4405,36.399 211.59825,35.06475 211.59825,32.65875 C211.59825,30.35175 209.79975,29.7015 207.327,29.40525 C203.511,28.96725 202.0125,27.78075 202.0125,25.25775 C202.0125,21.49275 205.30875,19.76775 208.221,19.76775 C210.16725,19.76775 211.62225,20.40075 212.61825,20.79075 C212.37675,22.026 212.2785,23.07075 212.2785,24.2115 L211.50075,24.2115" id="Fill-117" fill="#C52039"></path>
                <path d="M223.0065,29.43225 L222.8415,27.94725 C222.59925,27.417 221.16375,26.85525 220.3155,26.85525 C218.64,26.85525 216.7665,27.63225 216.7665,30.8175 C216.7665,34.65 218.9535,36.2055 221.31075,36.2055 C222.10575,36.2055 223.0845,35.91225 223.78725,35.50125 L224.031,35.8635 L223.518,36.645 C223.34775,36.88725 221.91675,37.4685 220.143,37.4685 C217.25175,37.4685 214.635,35.4735 214.635,31.8615 C214.635,29.60175 215.72475,28.0425 216.72,27.31725 C217.281,26.9055 218.10525,26.44425 218.781,26.1525 C219.5115,25.839 220.3155,25.596 221.11275,25.596 C222.522,25.596 223.42575,26.05425 224.031,26.44425 C223.833,27.1725 223.68675,28.36275 223.68675,29.43225 L223.0065,29.43225" id="Fill-118" fill="#C52039"></path>
                <path d="M226.85175,21.9285 C226.85175,21.37275 226.7775,20.934 226.24125,20.934 L224.88,20.934 L224.88,20.25675 C226.16475,20.05575 227.457,19.842 228.66825,19.3545 L228.8925,19.55175 L228.8925,27.75825 L228.93675,27.75825 L230.73075,26.20125 C231.2715,25.73625 231.73125,25.596 232.6995,25.596 C235.54425,25.596 236.709,27.1725 236.709,29.82 L236.709,34.50375 C236.709,35.16075 236.72775,35.6505 236.8275,35.91225 C236.93175,36.1305 237.18975,36.231 237.60525,36.25275 L238.60125,36.327 L238.60125,37.05075 C237.99075,37.0275 237.29325,36.9795 236.61075,36.9795 C235.92825,36.9795 235.22775,37.0275 234.66675,37.05075 L234.66675,30.15675 C234.66675,28.1445 233.526,27.0765 231.87225,27.0765 C230.3925,27.0765 228.8925,28.36275 228.8925,29.361 L228.8925,34.50375 C228.8925,35.16075 228.91125,35.6505 229.0065,35.91225 C229.10625,36.1305 229.37475,36.231 229.78725,36.25275 L230.8785,36.327 L230.8785,37.05075 C230.031,37.0275 229.06125,36.9795 227.86725,36.9795 C226.67625,36.9795 225.7095,37.0275 224.85675,37.05075 L224.85675,36.327 L225.948,36.25275 C226.36425,36.231 226.6275,36.1305 226.73175,35.91225 C226.8225,35.6505 226.85175,35.16075 226.85175,34.50375 L226.85175,21.9285" id="Fill-119" fill="#C52039"></path>
                <path d="M241.032,30.74025 C241.032,33.29025 241.95,36.669 245.06025,36.669 C247.269,36.669 248.217,34.461 248.217,32.202 C248.217,29.06625 246.73575,26.39175 244.4025,26.39175 C241.836,26.39175 241.032,28.4835 241.032,30.74025 Z M238.7715,31.785 C238.7715,28.1445 241.05825,25.596 244.9665,25.596 C248.07,25.596 250.47525,28.0215 250.47525,31.1325 C250.47525,34.8465 247.827,37.4685 244.11375,37.4685 C241.05825,37.56675 238.7715,35.13975 238.7715,31.785 L238.7715,31.785 Z" id="Fill-120" fill="#C52039"></path>
                <path d="M254.18025,30.74025 C254.18025,33.29025 255.10725,36.669 258.213,36.669 C260.42475,36.669 261.36825,34.461 261.36825,32.202 C261.36825,29.06625 259.89,26.39175 257.55825,26.39175 C254.98725,26.39175 254.18025,28.4835 254.18025,30.74025 Z M251.92275,31.785 C251.92275,28.1445 254.2095,25.596 258.12375,25.596 C261.22275,25.596 263.6295,28.0215 263.6295,31.1325 C263.6295,34.8465 260.98275,37.4685 257.265,37.4685 C254.2095,37.56675 251.92275,35.13975 251.92275,31.785 L251.92275,31.785 Z" id="Fill-121" fill="#C52039"></path>
                <path d="M265.9455,21.9285 C265.9455,21.37275 265.87575,20.934 265.338,20.934 L263.97975,20.934 L263.97975,20.25675 C265.266,20.05575 266.55225,19.842 267.7665,19.3545 L267.98325,19.55175 L267.98325,34.50375 C267.98325,35.16075 268.008,35.6505 268.10625,35.91225 C268.2015,36.1305 268.4685,36.231 268.887,36.25275 L270.00075,36.327 L270.00075,37.05075 C269.12625,37.0275 268.1565,36.9795 266.9685,36.9795 C265.7745,36.9795 264.80625,37.0275 263.92875,37.05075 L263.92875,36.327 L265.04475,36.25275 C265.4595,36.231 265.72725,36.1305 265.8225,35.91225 C265.92075,35.6505 265.9455,35.16075 265.9455,34.50375 L265.9455,21.9285" id="Fill-122" fill="#C52039"></path>
                <path d="M77.7306708,54.3871145 C76.5405833,54.3871145 75.6212976,54.0378549 74.9727861,53.3393253 C74.3242747,52.6407957 74.0000238,51.6516581 74.0000238,50.3718829 C74.0000238,49.0955571 74.3303113,48.1055572 74.9908961,47.4018533 C75.6514809,46.6981494 76.5819773,46.3463027 77.7824134,46.3463027 C78.4688697,46.3463027 79.2725979,46.4584107 80.1936221,46.6826301 L80.1936221,47.7019608 C79.1449653,47.3397602 78.3360629,47.1586627 77.7668906,47.1586627 C76.9355541,47.1586627 76.2922266,47.4397951 75.8368888,48.0020683 C75.381551,48.5643415 75.1538855,49.3577213 75.1538855,50.3822314 C75.1538855,51.3584481 75.3970736,52.1285439 75.8834572,52.6925419 C76.3698408,53.2565399 77.0338652,53.5385346 77.8755502,53.5385346 C78.5999513,53.5385346 79.3760837,53.3160433 80.2039707,52.8710541 L80.2039707,53.8024223 C79.4485238,54.192219 78.6240988,54.3871145 77.7306708,54.3871145 Z M84.0347316,54.3250233 C83.2309913,54.3250233 82.5893886,54.0585512 82.1099041,53.525599 C81.6304195,52.9926467 81.3906809,52.2794673 81.3906809,51.3860393 C81.3906809,50.4822627 81.6312819,49.7673586 82.1124912,49.2413054 C82.5937005,48.7152522 83.246514,48.4522296 84.0709515,48.4522296 C84.8953889,48.4522296 85.5482025,48.7152522 86.0294117,49.2413054 C86.510621,49.7673586 86.7512221,50.4788132 86.7512221,51.3756908 C86.7512221,52.2932655 86.5097587,53.0142062 86.0268246,53.5385346 C85.5438906,54.062863 84.8798662,54.3250233 84.0347316,54.3250233 Z M84.0502544,53.5592317 C85.129957,53.5592317 85.6698001,52.831392 85.6698001,51.3756908 C85.6698001,49.9372372 85.1368559,49.2180212 84.0709515,49.2180212 C83.0084965,49.2180212 82.4772771,49.9406867 82.4772771,51.3860393 C82.4772771,52.8348415 83.0015976,53.5592317 84.0502544,53.5592317 Z M88.3673965,54.1956666 L88.3673965,48.576412 L89.3867272,48.576412 L89.3867272,49.6319626 C89.7903221,48.84547 90.3767332,48.4522296 91.1459782,48.4522296 C91.249464,48.4522296 91.3581226,48.4608533 91.471957,48.4781009 L91.471957,49.4301662 C91.2960311,49.3715242 91.1408046,49.3422036 91.0062729,49.3422036 C90.361211,49.3422036 89.8213678,49.7250956 89.3867272,50.490891 L89.3867272,54.1956666 L88.3673965,54.1956666 Z M92.7259327,54.1956666 L92.7259327,48.576412 L93.7452634,48.576412 L93.7452634,49.6319626 C94.2833899,48.84547 94.9422401,48.4522296 95.7218336,48.4522296 C96.2082172,48.4522296 96.5962834,48.6065937 96.8860438,48.9153265 C97.1758043,49.2240594 97.3206823,49.638859 97.3206823,50.1597379 L97.3206823,54.1956666 L96.3013516,54.1956666 L96.3013516,50.490891 C96.3013516,50.073498 96.2401234,49.7759806 96.1176651,49.5983299 C95.9952068,49.4206791 95.79255,49.3318551 95.5096887,49.3318551 C94.8853239,49.3318551 94.2971881,49.7406181 93.7452634,50.5581565 L93.7452634,54.1956666 L92.7259327,54.1956666 Z M103.443644,54.0145672 C102.760637,54.221539 102.175951,54.3250233 101.689567,54.3250233 C100.86168,54.3250233 100.186445,54.0499275 99.6638413,53.4997276 C99.1412377,52.9495277 98.8799398,52.2363483 98.8799398,51.360168 C98.8799398,50.5081343 99.1101924,49.8096152 99.5707045,49.2645896 C100.031217,48.719564 100.620215,48.4470553 101.337717,48.4470553 C102.017274,48.4470553 102.542457,48.6885187 102.913281,49.1714528 C103.284106,49.6543868 103.469515,50.3408328 103.469515,51.2308113 L103.464341,51.5464416 L99.9199676,51.5464416 C100.068297,52.8814093 100.721973,53.5488832 101.881015,53.5488832 C102.305307,53.5488832 102.826178,53.4350504 103.443644,53.2073815 L103.443644,54.0145672 Z M99.966536,50.78065 L102.44501,50.78065 C102.44501,49.7354427 102.055219,49.2128469 101.275626,49.2128469 C100.492583,49.2128469 100.056224,49.7354427 99.966536,50.78065 Z M105.251266,54.1956666 L105.251266,46.0254981 L106.270597,46.0254981 L106.270597,54.1956666 L105.251266,54.1956666 Z M108.336933,54.1956666 L108.336933,46.0254981 L109.356263,46.0254981 L109.356263,54.1956666 L108.336933,54.1956666 Z M118.047464,54.3871145 C116.857377,54.3871145 115.938091,54.0378549 115.28958,53.3393253 C114.641068,52.6407957 114.316817,51.6516581 114.316817,50.3718829 C114.316817,49.0955571 114.647105,48.1055572 115.30769,47.4018533 C115.968274,46.6981494 116.898771,46.3463027 118.099207,46.3463027 C118.785663,46.3463027 119.589391,46.4584107 120.510416,46.6826301 L120.510416,47.7019608 C119.461759,47.3397602 118.652857,47.1586627 118.083684,47.1586627 C117.252348,47.1586627 116.60902,47.4397951 116.153682,48.0020683 C115.698345,48.5643415 115.470679,49.3577213 115.470679,50.3822314 C115.470679,51.3584481 115.713867,52.1285439 116.200251,52.6925419 C116.686634,53.2565399 117.350659,53.5385346 118.192344,53.5385346 C118.916745,53.5385346 119.692877,53.3160433 120.520764,52.8710541 L120.520764,53.8024223 C119.765317,54.192219 118.940892,54.3871145 118.047464,54.3871145 Z M126.271178,54.0145672 C125.588172,54.221539 125.003485,54.3250233 124.517102,54.3250233 C123.689215,54.3250233 123.01398,54.0499275 122.491376,53.4997276 C121.968772,52.9495277 121.707474,52.2363483 121.707474,51.360168 C121.707474,50.5081343 121.937727,49.8096152 122.398239,49.2645896 C122.858751,48.719564 123.44775,48.4470553 124.165252,48.4470553 C124.844809,48.4470553 125.369992,48.6885187 125.740816,49.1714528 C126.11164,49.6543868 126.29705,50.3408328 126.29705,51.2308113 L126.291876,51.5464416 L122.747502,51.5464416 C122.895832,52.8814093 123.549508,53.5488832 124.70855,53.5488832 C125.132842,53.5488832 125.653713,53.4350504 126.271178,53.2073815 L126.271178,54.0145672 Z M122.794071,50.78065 L125.272545,50.78065 C125.272545,49.7354427 124.882754,49.2128469 124.10316,49.2128469 C123.320117,49.2128469 122.883758,49.7354427 122.794071,50.78065 Z M128.078801,54.1956666 L128.078801,48.576412 L129.098131,48.576412 L129.098131,49.6319626 C129.636258,48.84547 130.295108,48.4522296 131.074702,48.4522296 C131.561085,48.4522296 131.949151,48.6065937 132.238912,48.9153265 C132.528672,49.2240594 132.67355,49.638859 132.67355,50.1597379 L132.67355,54.1956666 L131.65422,54.1956666 L131.65422,50.490891 C131.65422,50.073498 131.592991,49.7759806 131.470533,49.5983299 C131.348075,49.4206791 131.145418,49.3318551 130.862557,49.3318551 C130.238192,49.3318551 129.650056,49.7406181 129.098131,50.5581565 L129.098131,54.1956666 L128.078801,54.1956666 Z M136.364606,54.3250233 C135.847177,54.3250233 135.443588,54.1766958 135.153827,53.8800363 C134.864067,53.5833768 134.719189,53.1711643 134.719189,52.6433863 L134.719189,49.3422036 L134.015489,49.3422036 L134.015489,48.576412 L134.719189,48.576412 L134.719189,47.5570813 L135.73852,47.4587702 L135.73852,48.576412 L137.208012,48.576412 L137.208012,49.3422036 L135.73852,49.3422036 L135.73852,52.4571127 C135.73852,53.1918624 136.055872,53.5592317 136.690585,53.5592317 C136.825117,53.5592317 136.988967,53.5368101 137.18214,53.4919662 L137.18214,54.1956666 C136.868233,54.2819048 136.595725,54.3250233 136.364606,54.3250233 Z M142.782501,54.0145672 C142.099494,54.221539 141.514808,54.3250233 141.028424,54.3250233 C140.200537,54.3250233 139.525302,54.0499275 139.002698,53.4997276 C138.480095,52.9495277 138.218797,52.2363483 138.218797,51.360168 C138.218797,50.5081343 138.449049,49.8096152 138.909562,49.2645896 C139.370074,48.719564 139.959072,48.4470553 140.676574,48.4470553 C141.356131,48.4470553 141.881314,48.6885187 142.252138,49.1714528 C142.622963,49.6543868 142.808372,50.3408328 142.808372,51.2308113 L142.803198,51.5464416 L139.258825,51.5464416 C139.407154,52.8814093 140.06083,53.5488832 141.219872,53.5488832 C141.644164,53.5488832 142.165035,53.4350504 142.782501,53.2073815 L142.782501,54.0145672 Z M139.305393,50.78065 L141.783867,50.78065 C141.783867,49.7354427 141.394076,49.2128469 140.614483,49.2128469 C139.83144,49.2128469 139.395081,49.7354427 139.305393,50.78065 Z M144.590123,54.1956666 L144.590123,48.576412 L145.609454,48.576412 L145.609454,49.6319626 C146.013049,48.84547 146.59946,48.4522296 147.368705,48.4522296 C147.472191,48.4522296 147.580849,48.4608533 147.694684,48.4781009 L147.694684,49.4301662 C147.518758,49.3715242 147.363531,49.3422036 147.229,49.3422036 C146.583938,49.3422036 146.044095,49.7250956 145.609454,50.490891 L145.609454,54.1956666 L144.590123,54.1956666 Z M154.523148,54.3250233 C153.719408,54.3250233 153.077805,54.0585512 152.598321,53.525599 C152.118836,52.9926467 151.879098,52.2794673 151.879098,51.3860393 C151.879098,50.4822627 152.119699,49.7673586 152.600908,49.2413054 C153.082117,48.7152522 153.734931,48.4522296 154.559368,48.4522296 C155.383806,48.4522296 156.036619,48.7152522 156.517829,49.2413054 C156.999038,49.7673586 157.239639,50.4788132 157.239639,51.3756908 C157.239639,52.2932655 156.998176,53.0142062 156.515241,53.5385346 C156.032307,54.062863 155.368283,54.3250233 154.523148,54.3250233 Z M154.538671,53.5592317 C155.618374,53.5592317 156.158217,52.831392 156.158217,51.3756908 C156.158217,49.9372372 155.625273,49.2180212 154.559368,49.2180212 C153.496913,49.2180212 152.965694,49.9406867 152.965694,51.3860393 C152.965694,52.8348415 153.490014,53.5592317 154.538671,53.5592317 Z M158.855813,54.1956666 L158.855813,48.576412 L159.875144,48.576412 L159.875144,49.6319626 C160.413271,48.84547 161.072121,48.4522296 161.851714,48.4522296 C162.338098,48.4522296 162.726164,48.6065937 163.015925,48.9153265 C163.305685,49.2240594 163.450563,49.638859 163.450563,50.1597379 L163.450563,54.1956666 L162.431232,54.1956666 L162.431232,50.490891 C162.431232,50.073498 162.370004,49.7759806 162.247546,49.5983299 C162.125087,49.4206791 161.922431,49.3318551 161.639569,49.3318551 C161.015205,49.3318551 160.427069,49.7406181 159.875144,50.5581565 L159.875144,54.1956666 L158.855813,54.1956666 Z M170.517044,54.3250233 C169.999615,54.3250233 169.596026,54.1766958 169.306265,53.8800363 C169.016505,53.5833768 168.871627,53.1711643 168.871627,52.6433863 L168.871627,49.3422036 L168.167927,49.3422036 L168.167927,48.576412 L168.871627,48.576412 L168.871627,47.5570813 L169.890958,47.4587702 L169.890958,48.576412 L171.36045,48.576412 L171.36045,49.3422036 L169.890958,49.3422036 L169.890958,52.4571127 C169.890958,53.1918624 170.20831,53.5592317 170.843023,53.5592317 C170.977555,53.5592317 171.141405,53.5368101 171.334578,53.4919662 L171.334578,54.1956666 C171.020671,54.2819048 170.748163,54.3250233 170.517044,54.3250233 Z M172.816222,54.1956666 L172.816222,46.0254981 L173.835553,46.0254981 L173.835553,49.6319626 C174.373679,48.84547 175.032529,48.4522296 175.812123,48.4522296 C176.298506,48.4522296 176.686573,48.6065937 176.976333,48.9153265 C177.266093,49.2240594 177.410971,49.638859 177.410971,50.1597379 L177.410971,54.1956666 L176.391641,54.1956666 L176.391641,50.490891 C176.391641,50.073498 176.330412,49.7759806 176.207954,49.5983299 C176.085496,49.4206791 175.882839,49.3318551 175.599978,49.3318551 C174.975613,49.3318551 174.387477,49.7406181 173.835553,50.5581565 L173.835553,54.1956666 L172.816222,54.1956666 Z M183.533933,54.0145672 C182.850926,54.221539 182.26624,54.3250233 181.779856,54.3250233 C180.951969,54.3250233 180.276734,54.0499275 179.75413,53.4997276 C179.231527,52.9495277 178.970229,52.2363483 178.970229,51.360168 C178.970229,50.5081343 179.200482,49.8096152 179.660994,49.2645896 C180.121506,48.719564 180.710504,48.4470553 181.428006,48.4470553 C182.107563,48.4470553 182.632746,48.6885187 183.00357,49.1714528 C183.374395,49.6543868 183.559804,50.3408328 183.559804,51.2308113 L183.55463,51.5464416 L180.010257,51.5464416 C180.158586,52.8814093 180.812262,53.5488832 181.971304,53.5488832 C182.395596,53.5488832 182.916467,53.4350504 183.533933,53.2073815 L183.533933,54.0145672 Z M180.056825,50.78065 L182.535299,50.78065 C182.535299,49.7354427 182.145508,49.2128469 181.365915,49.2128469 C180.582872,49.2128469 180.146513,49.7354427 180.056825,50.78065 Z M188.685935,54.1956666 L188.685935,46.5377506 L191.231675,46.5377506 C191.990571,46.5377506 192.603716,46.6222628 193.071127,46.7912897 C193.538538,46.9603166 193.942989,47.2466232 194.284493,47.6502181 C194.826069,48.2918305 195.096853,49.1369524 195.096853,50.1856092 C195.096853,51.4584854 194.760528,52.4450359 194.08787,53.1452903 C193.415212,53.8455447 192.468331,54.1956666 191.247197,54.1956666 L188.685935,54.1956666 Z M189.772531,53.3833066 L191.164409,53.3833066 C192.157874,53.3833066 192.861567,53.1159721 193.27551,52.5812951 C193.7205,52.0121228 193.942991,51.2480636 193.942991,50.2890946 C193.942991,49.3887675 193.723949,48.6816247 193.285859,48.1676449 C193.020245,47.8537377 192.702893,47.6390078 192.333794,47.5234486 C191.964694,47.4078893 191.409328,47.3501106 190.667679,47.3501106 L189.772531,47.3501106 L189.772531,53.3833066 Z M200.795524,54.0145672 C200.112517,54.221539 199.527831,54.3250233 199.041447,54.3250233 C198.21356,54.3250233 197.538325,54.0499275 197.015722,53.4997276 C196.493118,52.9495277 196.23182,52.2363483 196.23182,51.360168 C196.23182,50.5081343 196.462073,49.8096152 196.922585,49.2645896 C197.383097,48.719564 197.972095,48.4470553 198.689597,48.4470553 C199.369154,48.4470553 199.894337,48.6885187 200.265162,49.1714528 C200.635986,49.6543868 200.821395,50.3408328 200.821395,51.2308113 L200.816221,51.5464416 L197.271848,51.5464416 C197.420178,52.8814093 198.073854,53.5488832 199.232895,53.5488832 C199.657187,53.5488832 200.178058,53.4350504 200.795524,53.2073815 L200.795524,54.0145672 Z M197.318416,50.78065 L199.79689,50.78065 C199.79689,49.7354427 199.407099,49.2128469 198.627506,49.2128469 C197.844463,49.2128469 197.408104,49.7354427 197.318416,50.78065 Z M205.500736,53.4816177 C204.89017,54.0438909 204.302034,54.3250233 203.736311,54.3250233 C203.270625,54.3250233 202.884283,54.1792829 202.577275,53.8877977 C202.270267,53.5963125 202.116765,53.2280808 202.116765,52.7830916 C202.116765,52.1690754 202.374614,51.6973594 202.890318,51.3679294 C203.406023,51.0384994 204.145073,50.8737868 205.107492,50.8737868 L205.350682,50.8737868 L205.350682,50.1959578 C205.350682,49.5439968 205.016083,49.2180212 204.346875,49.2180212 C203.808748,49.2180212 203.227511,49.3835961 202.603146,49.7147509 L202.603146,48.8713453 C203.289603,48.5919334 203.93293,48.4522296 204.533148,48.4522296 C205.160962,48.4522296 205.624055,48.5936582 205.922439,48.8765195 C206.220823,49.1593809 206.370013,49.5991893 206.370013,50.1959578 L206.370013,52.7416974 C206.370013,53.3246678 206.549386,53.6161486 206.908137,53.6161486 C206.952981,53.6161486 207.018521,53.6092497 207.104759,53.5954516 L207.177199,54.1594467 C206.94608,54.2698317 206.690819,54.3250233 206.411407,54.3250233 C205.935372,54.3250233 205.631818,54.0438909 205.500736,53.4816177 Z M205.350682,52.927971 L205.350682,51.4740019 L205.009181,51.4636533 C204.450357,51.4636533 203.998476,51.5697247 203.653523,51.7818708 C203.30857,51.9940168 203.136096,52.2725621 203.136096,52.617515 C203.136096,52.8624315 203.222333,53.0694002 203.394809,53.2384271 C203.567286,53.407454 203.777704,53.4919662 204.02607,53.4919662 C204.450362,53.4919662 204.891895,53.3039697 205.350682,52.927971 Z M210.164554,54.3250233 C209.647125,54.3250233 209.243536,54.1766958 208.953776,53.8800363 C208.664015,53.5833768 208.519137,53.1711643 208.519137,52.6433863 L208.519137,49.3422036 L207.815437,49.3422036 L207.815437,48.576412 L208.519137,48.576412 L208.519137,47.5570813 L209.538468,47.4587702 L209.538468,48.576412 L211.00796,48.576412 L211.00796,49.3422036 L209.538468,49.3422036 L209.538468,52.4571127 C209.538468,53.1918624 209.85582,53.5592317 210.490533,53.5592317 C210.625065,53.5592317 210.788915,53.5368101 210.982089,53.4919662 L210.982089,54.1956666 C210.668181,54.2819048 210.395673,54.3250233 210.164554,54.3250233 Z M212.463732,54.1956666 L212.463732,46.0254981 L213.483063,46.0254981 L213.483063,49.6319626 C214.021189,48.84547 214.680039,48.4522296 215.459633,48.4522296 C215.946016,48.4522296 216.334083,48.6065937 216.623843,48.9153265 C216.913604,49.2240594 217.058482,49.638859 217.058482,50.1597379 L217.058482,54.1956666 L216.039151,54.1956666 L216.039151,50.490891 C216.039151,50.073498 215.977923,49.7759806 215.855464,49.5983299 C215.733006,49.4206791 215.530349,49.3318551 215.247488,49.3318551 C214.623123,49.3318551 214.034987,49.7406181 213.483063,50.5581565 L213.483063,54.1956666 L212.463732,54.1956666 Z M222.407106,54.1956666 L222.407106,46.5377506 L224.492336,46.5377506 C225.416809,46.5377506 226.080834,46.6938394 226.484429,47.0060218 C226.888024,47.3182042 227.089818,47.8313139 227.089818,48.5453664 C227.089818,49.3594552 226.81386,49.9976085 226.261935,50.4598454 C225.710011,50.9220823 224.944227,51.1531973 223.96456,51.1531973 L223.483354,51.1531973 L223.483354,54.1956666 L222.407106,54.1956666 Z M223.483354,50.3304887 L223.923166,50.3304887 C224.568228,50.3304887 225.066678,50.1821612 225.41853,49.8855017 C225.770382,49.5888422 225.946305,49.1697307 225.946305,48.6281547 C225.946305,48.1693673 225.808326,47.841667 225.532363,47.6450438 C225.256401,47.4484207 224.795896,47.3501106 224.150834,47.3501106 L223.483354,47.3501106 L223.483354,50.3304887 Z M232.436639,54.0145672 C231.753633,54.221539 231.168946,54.3250233 230.682563,54.3250233 C229.854676,54.3250233 229.179441,54.0499275 228.656837,53.4997276 C228.134233,52.9495277 227.872935,52.2363483 227.872935,51.360168 C227.872935,50.5081343 228.103188,49.8096152 228.5637,49.2645896 C229.024212,48.719564 229.61321,48.4470553 230.330712,48.4470553 C231.01027,48.4470553 231.535453,48.6885187 231.906277,49.1714528 C232.277101,49.6543868 232.462511,50.3408328 232.462511,51.2308113 L232.457336,51.5464416 L228.912963,51.5464416 C229.061293,52.8814093 229.714969,53.5488832 230.874011,53.5488832 C231.298303,53.5488832 231.819174,53.4350504 232.436639,53.2073815 L232.436639,54.0145672 Z M228.959532,50.78065 L231.438006,50.78065 C231.438006,49.7354427 231.048215,49.2128469 230.268621,49.2128469 C229.485578,49.2128469 229.049219,49.7354427 228.959532,50.78065 Z M234.244262,54.1956666 L234.244262,48.576412 L235.263592,48.576412 L235.263592,49.6319626 C235.801719,48.84547 236.460569,48.4522296 237.240163,48.4522296 C237.726546,48.4522296 238.114612,48.6065937 238.404373,48.9153265 C238.694133,49.2240594 238.839011,49.638859 238.839011,50.1597379 L238.839011,54.1956666 L237.819681,54.1956666 L237.819681,50.490891 C237.819681,50.073498 237.758452,49.7759806 237.635994,49.5983299 C237.513536,49.4206791 237.310879,49.3318551 237.028018,49.3318551 C236.403653,49.3318551 235.815517,49.7406181 235.263592,50.5581565 L235.263592,54.1956666 L234.244262,54.1956666 Z M243.740846,53.4816177 C243.130279,54.0438909 242.542143,54.3250233 241.97642,54.3250233 C241.510734,54.3250233 241.124392,54.1792829 240.817384,53.8877977 C240.510376,53.5963125 240.356875,53.2280808 240.356875,52.7830916 C240.356875,52.1690754 240.614723,51.6973594 241.130428,51.3679294 C241.646132,51.0384994 242.385183,50.8737868 243.347601,50.8737868 L243.590792,50.8737868 L243.590792,50.1959578 C243.590792,49.5439968 243.256193,49.2180212 242.586984,49.2180212 C242.048857,49.2180212 241.46762,49.3835961 240.843256,49.7147509 L240.843256,48.8713453 C241.529712,48.5919334 242.17304,48.4522296 242.773258,48.4522296 C243.401072,48.4522296 243.864164,48.5936582 244.162548,48.8765195 C244.460933,49.1593809 244.610123,49.5991893 244.610123,50.1959578 L244.610123,52.7416974 C244.610123,53.3246678 244.789495,53.6161486 245.148246,53.6161486 C245.19309,53.6161486 245.25863,53.6092497 245.344869,53.5954516 L245.417308,54.1594467 C245.18619,54.2698317 244.930929,54.3250233 244.651517,54.3250233 C244.175482,54.3250233 243.871928,54.0438909 243.740846,53.4816177 Z M243.590792,52.927971 L243.590792,51.4740019 L243.24929,51.4636533 C242.690466,51.4636533 242.238585,51.5697247 241.893632,51.7818708 C241.548679,51.9940168 241.376205,52.2725621 241.376205,52.617515 C241.376205,52.8624315 241.462442,53.0694002 241.634919,53.2384271 C241.807395,53.407454 242.017813,53.4919662 242.266179,53.4919662 C242.690471,53.4919662 243.132004,53.3039697 243.590792,52.927971 Z M246.717852,54.1956666 L246.717852,46.0254981 L247.737183,46.0254981 L247.737183,54.1956666 L246.717852,54.1956666 Z M251.49033,54.3250233 C250.972901,54.3250233 250.569312,54.1766958 250.279551,53.8800363 C249.989791,53.5833768 249.844913,53.1711643 249.844913,52.6433863 L249.844913,49.3422036 L249.141213,49.3422036 L249.141213,48.576412 L249.844913,48.576412 L249.844913,47.5570813 L250.864244,47.4587702 L250.864244,48.576412 L252.333736,48.576412 L252.333736,49.3422036 L250.864244,49.3422036 L250.864244,52.4571127 C250.864244,53.1918624 251.181596,53.5592317 251.816309,53.5592317 C251.95084,53.5592317 252.114691,53.5368101 252.307864,53.4919662 L252.307864,54.1956666 C251.993957,54.2819048 251.721448,54.3250233 251.49033,54.3250233 Z M254.115487,56.2395023 L255.026158,54.1956666 L252.852965,48.576412 L253.955084,48.576412 L255.564282,52.8089629 L257.282138,48.576412 L258.244552,48.576412 L255.176211,56.2395023 L254.115487,56.2395023 Z M263.686313,54.1956666 L261.714917,46.5377506 L262.760119,46.5377506 L264.327922,52.5864694 L265.771543,46.5377506 L266.816745,46.5377506 L268.182752,52.5036811 L269.869563,46.5377506 L270.754363,46.5377506 L268.607042,54.1956666 L267.52562,54.1956666 L266.175136,48.2918273 L264.762561,54.1956666 L263.686313,54.1956666 Z M273.692873,54.3250233 C272.889133,54.3250233 272.24753,54.0585512 271.768045,53.525599 C271.288561,52.9926467 271.048822,52.2794673 271.048822,51.3860393 C271.048822,50.4822627 271.289423,49.7673586 271.770633,49.2413054 C272.251842,48.7152522 272.904655,48.4522296 273.729093,48.4522296 C274.55353,48.4522296 275.206344,48.7152522 275.687553,49.2413054 C276.168762,49.7673586 276.409363,50.4788132 276.409363,51.3756908 C276.409363,52.2932655 276.1679,53.0142062 275.684966,53.5385346 C275.202032,54.062863 274.538008,54.3250233 273.692873,54.3250233 Z M273.708396,53.5592317 C274.788098,53.5592317 275.327942,52.831392 275.327942,51.3756908 C275.327942,49.9372372 274.794997,49.2180212 273.729093,49.2180212 C272.666638,49.2180212 272.135418,49.9406867 272.135418,51.3860393 C272.135418,52.8348415 272.659739,53.5592317 273.708396,53.5592317 Z M278.025538,54.1956666 L278.025538,48.576412 L279.044869,48.576412 L279.044869,49.6319626 C279.448463,48.84547 280.034875,48.4522296 280.80412,48.4522296 C280.907605,48.4522296 281.016264,48.4608533 281.130098,48.4781009 L281.130098,49.4301662 C280.954172,49.3715242 280.798946,49.3422036 280.664414,49.3422036 C280.019352,49.3422036 279.479509,49.7250956 279.044869,50.490891 L279.044869,54.1956666 L278.025538,54.1956666 Z M282.384074,54.1956666 L282.384074,46.0254981 L283.403405,46.0254981 L283.403405,54.1956666 L282.384074,54.1956666 Z M289.076205,54.1956666 L289.076205,53.140116 C288.662262,53.9300581 288.037906,54.3250233 287.20312,54.3250233 C286.527012,54.3250233 285.994931,54.0783857 285.606859,53.585103 C285.218787,53.0918204 285.024753,52.4174476 285.024753,51.5619644 C285.024753,50.6271421 285.244658,49.875156 285.684473,49.3059837 C286.124288,48.7368115 286.702937,48.4522296 287.420439,48.4522296 C288.086198,48.4522296 288.638115,48.7074909 289.076205,49.2180212 L289.076205,46.0254981 L290.10071,46.0254981 L290.10071,54.1956666 L289.076205,54.1956666 Z M289.076205,49.9165473 C288.548427,49.4508609 288.048253,49.2180212 287.575667,49.2180212 C286.599451,49.2180212 286.11135,49.964833 286.11135,51.4584791 C286.11135,52.7727496 286.545984,53.429875 287.415265,53.429875 C287.980988,53.429875 288.534629,53.1211468 289.076205,52.5036811 L289.076205,49.9165473 Z M292.813829,54.1956666 L291.204632,48.576412 L292.203266,48.576412 L293.434741,52.927971 L294.764528,48.576412 L295.783859,48.576412 L296.948069,52.927971 L298.360644,48.576412 L299.235095,48.576412 L297.403404,54.1956666 L296.378899,54.1956666 L295.188818,49.8441076 L293.843508,54.1956666 L292.813829,54.1956666 Z M300.349366,54.1956666 L300.349366,48.576412 L301.368696,48.576412 L301.368696,54.1956666 L300.349366,54.1956666 Z M300.349366,47.5570813 L300.349366,46.5377506 L301.368696,46.5377506 L301.368696,47.5570813 L300.349366,47.5570813 Z M307.041497,54.1956666 L307.041497,53.140116 C306.627553,53.9300581 306.003198,54.3250233 305.168412,54.3250233 C304.492304,54.3250233 303.960222,54.0783857 303.57215,53.585103 C303.184078,53.0918204 302.990045,52.4174476 302.990045,51.5619644 C302.990045,50.6271421 303.209949,49.875156 303.649764,49.3059837 C304.089579,48.7368115 304.668229,48.4522296 305.385731,48.4522296 C306.05149,48.4522296 306.603406,48.7074909 307.041497,49.2180212 L307.041497,46.0254981 L308.066002,46.0254981 L308.066002,54.1956666 L307.041497,54.1956666 Z M307.041497,49.9165473 C306.513719,49.4508609 306.013544,49.2180212 305.540959,49.2180212 C304.564742,49.2180212 304.076641,49.964833 304.076641,51.4584791 C304.076641,52.7727496 304.511275,53.429875 305.380557,53.429875 C305.946279,53.429875 306.499921,53.1211468 307.041497,52.5036811 L307.041497,49.9165473 Z M314.24588,54.0145672 C313.562873,54.221539 312.978187,54.3250233 312.491803,54.3250233 C311.663916,54.3250233 310.988681,54.0499275 310.466077,53.4997276 C309.943474,52.9495277 309.682176,52.2363483 309.682176,51.360168 C309.682176,50.5081343 309.912429,49.8096152 310.372941,49.2645896 C310.833453,48.719564 311.422451,48.4470553 312.139953,48.4470553 C312.81951,48.4470553 313.344693,48.6885187 313.715518,49.1714528 C314.086342,49.6543868 314.271751,50.3408328 314.271751,51.2308113 L314.266577,51.5464416 L310.722204,51.5464416 C310.870533,52.8814093 311.524209,53.5488832 312.683251,53.5488832 C313.107543,53.5488832 313.628414,53.4350504 314.24588,53.2073815 L314.24588,54.0145672 Z M310.768772,50.78065 L313.247246,50.78065 C313.247246,49.7354427 312.857455,49.2128469 312.077862,49.2128469 C311.294819,49.2128469 310.85846,49.7354427 310.768772,50.78065 Z" id="CornellCenterontheDeathPenaltyWorldwide" fill="#7D6D5D" fill-rule="nonzero"></path>
            </g>
        </g>
    </g>
</svg>